<?xml version="1.0" encoding="UTF-8" standalone="no"?>
<!-- Generator: Adobe Illustrator 16.0.0, SVG Export Plug-In . SVG Version: 6.00 Build 0)  -->

<svg
   xmlns:dc="http://purl.org/dc/elements/1.1/"
   xmlns:cc="http://creativecommons.org/ns#"
   xmlns:rdf="http://www.w3.org/1999/02/22-rdf-syntax-ns#"
   xmlns:svg="http://www.w3.org/2000/svg"
   xmlns="http://www.w3.org/2000/svg"
   xmlns:sodipodi="http://sodipodi.sourceforge.net/DTD/sodipodi-0.dtd"
   xmlns:inkscape="http://www.inkscape.org/namespaces/inkscape"
   version="1.1"
   id="Capa_1"
   x="0px"
   y="0px"
   width="50"
   height="50"
   viewBox="0 0 49.999999 49.999999"
   xml:space="preserve"
   sodipodi:docname="github-square.svg"
   inkscape:version="0.92.4 (5da689c313, 2019-01-14)"><metadata
   id="metadata886"><rdf:RDF><cc:Work
       rdf:about=""><dc:format>image/svg+xml</dc:format><dc:type
         rdf:resource="http://purl.org/dc/dcmitype/StillImage" /><dc:title></dc:title></cc:Work></rdf:RDF></metadata><defs
   id="defs884">
	
</defs><sodipodi:namedview
   pagecolor="#ffffff"
   bordercolor="#666666"
   borderopacity="1"
   objecttolerance="10"
   gridtolerance="10"
   guidetolerance="10"
   inkscape:pageopacity="0"
   inkscape:pageshadow="2"
   inkscape:window-width="1381"
   inkscape:window-height="845"
   id="namedview882"
   showgrid="false"
   inkscape:zoom="2.152553"
   inkscape:cx="-20.440838"
   inkscape:cy="-3.7165115"
   inkscape:window-x="16"
   inkscape:window-y="1080"
   inkscape:window-maximized="0"
   inkscape:current-layer="Capa_1" />

<g
   id="g851"
   transform="translate(0,-388.54901)">
</g>
<g
   id="g853"
   transform="translate(0,-388.54901)">
</g>
<g
   id="g855"
   transform="translate(0,-388.54901)">
</g>
<g
   id="g857"
   transform="translate(0,-388.54901)">
</g>
<g
   id="g859"
   transform="translate(0,-388.54901)">
</g>
<g
   id="g861"
   transform="translate(0,-388.54901)">
</g>
<g
   id="g863"
   transform="translate(0,-388.54901)">
</g>
<g
   id="g865"
   transform="translate(0,-388.54901)">
</g>
<g
   id="g867"
   transform="translate(0,-388.54901)">
</g>
<g
   id="g869"
   transform="translate(0,-388.54901)">
</g>
<g
   id="g871"
   transform="translate(0,-388.54901)">
</g>
<g
   id="g873"
   transform="translate(0,-388.54901)">
</g>
<g
   id="g875"
   transform="translate(0,-388.54901)">
</g>
<g
   id="g877"
   transform="translate(0,-388.54901)">
</g>
<g
   id="g879"
   transform="translate(0,-388.54901)">
</g>
<g
   id="g1410"
   transform="matrix(0.11160714,0,0,0.11160714,1.241755,-5.1799217)"><path
     sodipodi:nodetypes="sssssssss"
     d="m 36.873882,46.41211 c -26.5,0 -48,21.5 -48,48.000002 V 446.4121 c 0,26.5 21.5,48 48,48 H 388.87388 c 26.5,0 48,-21.5 48,-48 V 94.412112 c 0,-26.500002 -21.5,-48.000002 -48,-48.000002 z"
     id="path2"
     inkscape:connector-curvature="0" /><path
     d="M 373.05738,182.07597 C 356.51416,153.73112 334.07435,131.29046 305.73203,114.74894 277.3855,98.206568 246.43953,89.937492 212.87219,89.937492 c -33.56311,0 -64.5192,8.271607 -92.85983,24.811448 -28.344852,16.54068 -50.78382,38.98218 -67.327034,67.32703 -16.540682,28.344 -24.811445,59.29588 -24.811445,92.85477 0,40.31185 11.761138,76.5613 35.28932,108.75763 23.525651,32.19885 53.917309,54.47921 91.172439,66.84359 4.33661,0.80489 7.54687,0.23876 9.63418,-1.68402 2.08815,-1.92532 3.13096,-4.3366 3.13096,-7.22374 0,-0.48175 -0.0413,-4.81582 -0.12149,-13.00727 -0.0827,-8.19146 -0.12149,-15.33758 -0.12149,-21.43497 l -5.54056,0.95844 c -3.53256,0.64711 -7.98897,0.92131 -13.36923,0.84369 -5.37772,-0.0751 -10.96047,-0.63868 -16.74064,-1.68655 -5.7827,-1.03859 -11.16126,-3.44734 -16.13992,-7.2212 -4.97613,-3.77386 -8.50869,-8.71371 -10.59684,-14.81195 l -2.40875,-5.54309 c -1.60556,-3.69033 -4.133275,-7.78985 -7.586528,-12.28338 -3.453252,-4.49775 -6.945314,-7.54688 -10.477874,-9.15243 l -1.686551,-1.20733 c -1.123804,-0.80236 -2.166614,-1.77008 -3.13096,-2.89304 -0.963502,-1.12296 -1.684863,-2.24676 -2.166614,-3.37226 -0.482595,-1.12633 -0.08268,-2.05018 1.203956,-2.77492 1.286638,-0.72473 3.611867,-1.07655 6.985812,-1.07655 l 4.815823,0.71967 c 3.211955,0.64374 7.184925,2.56653 11.923976,5.78017 4.73651,3.21111 8.63017,7.38572 11.68183,12.52215 3.69539,6.5859 8.14758,11.60421 13.36922,15.05746 5.21742,3.45326 10.47788,5.17693 15.77629,5.17693 5.29842,0 9.87463,-0.4016 13.73033,-1.20058 3.85148,-0.8032 7.46503,-2.01053 10.83898,-3.61524 1.44525,-10.76389 5.38025,-19.03297 11.80163,-24.81314 -9.15242,-0.96181 -17.381,-2.41044 -24.68995,-4.3366 -7.30473,-1.92869 -14.85329,-5.05881 -22.64061,-9.39879 -7.79155,-4.33407 -14.25511,-9.71601 -19.39238,-16.13655 -5.13812,-6.42391 -9.35491,-14.8575 -12.64449,-25.29319 -3.291262,-10.43991 -4.937315,-22.48284 -4.937315,-36.13218 0,-19.43456 6.344605,-35.97271 19.031275,-49.62373 -5.943,-14.61115 -5.38194,-30.99068 1.68486,-49.13692 4.65721,-1.44694 11.56372,-0.3611 20.71614,3.25076 9.15412,3.61356 15.85645,6.70908 20.11374,9.27561 4.2573,2.56568 7.66837,4.73989 10.23827,6.50322 14.93766,-4.17377 30.35285,-6.26108 46.24979,-6.26108 15.89694,0 31.3155,2.08731 46.254,6.26108 l 9.15327,-5.77848 c 6.25939,-3.8557 13.65102,-7.3891 22.15718,-10.60106 8.51122,-3.21027 15.0195,-4.09446 19.51809,-2.64752 7.22373,18.14708 7.86747,34.52577 1.92278,49.13692 12.68583,13.65102 19.03297,30.19339 19.03297,49.62373 0,13.64934 -1.65196,25.73024 -4.93816,36.2503 -3.29042,10.52174 -7.5435,18.9469 -12.76092,25.29319 -5.22333,6.34545 -11.72823,11.68521 -19.51556,16.01844 -7.78901,4.3366 -15.3401,7.46672 -22.64483,9.39541 -7.3081,1.92869 -15.53668,3.37816 -24.68911,4.34166 8.34754,7.22374 12.52215,18.6263 12.52215,34.20264 v 50.82178 c 0,2.88714 1.004,5.29758 3.01369,7.22374 2.00716,1.92278 5.17693,2.48891 9.51353,1.68317 37.2602,-12.36269 67.65185,-34.64389 91.17666,-66.84274 23.52228,-32.19633 35.28763,-68.44578 35.28763,-108.75763 -0.008,-33.55467 -8.28342,-64.50402 -24.8165,-92.84802 z"
     id="path847"
     inkscape:connector-curvature="0"
     style="fill:#ffffff;stroke-width:0.84369713" /></g></svg>