<?xml version="1.0" encoding="UTF-8" standalone="no"?>
<svg
   xmlns:dc="http://purl.org/dc/elements/1.1/"
   xmlns:cc="http://creativecommons.org/ns#"
   xmlns:rdf="http://www.w3.org/1999/02/22-rdf-syntax-ns#"
   xmlns:svg="http://www.w3.org/2000/svg"
   xmlns="http://www.w3.org/2000/svg"
   xmlns:sodipodi="http://sodipodi.sourceforge.net/DTD/sodipodi-0.dtd"
   xmlns:inkscape="http://www.inkscape.org/namespaces/inkscape"
   sodipodi:docname="researchgate-square.svg"
   inkscape:version="0.92.4 (5da689c313, 2019-01-14)"
   id="svg8"
   version="1.1"
   viewBox="0 0 448 448"
   height="448"
   width="448">
  <title
     id="title1605">ResearchGate</title>
  <defs
     id="defs2" />
  <sodipodi:namedview
     inkscape:window-maximized="0"
     inkscape:window-y="1080"
     inkscape:window-x="-31"
     inkscape:window-height="855"
     inkscape:window-width="1440"
     inkscape:guide-bbox="true"
     showguides="true"
     units="px"
     showgrid="true"
     inkscape:document-rotation="0"
     inkscape:current-layer="layer6"
     inkscape:document-units="px"
     inkscape:cy="256"
     inkscape:cx="265.8932"
     inkscape:zoom="0.75"
     inkscape:pageshadow="2"
     inkscape:pageopacity="0.0"
     borderopacity="1.0"
     bordercolor="#666666"
     pagecolor="#ffffff"
     id="base">
    <inkscape:grid
       empspacing="4"
       id="grid10"
       type="xygrid" />
    <sodipodi:guide
       inkscape:color="rgb(0,0,255)"
       inkscape:locked="false"
       inkscape:label=""
       id="guide832"
       orientation="0,1"
       position="448,416" />
    <sodipodi:guide
       inkscape:color="rgb(0,0,255)"
       inkscape:locked="false"
       inkscape:label=""
       id="guide834"
       orientation="0,1"
       position="448,96" />
    <sodipodi:guide
       inkscape:color="rgb(0,0,255)"
       inkscape:locked="false"
       inkscape:label="baseline"
       id="guide836"
       orientation="0,1"
       position="448,64" />
    <sodipodi:guide
       position="64,512"
       orientation="1,0"
       id="guide835"
       inkscape:locked="false" />
    <sodipodi:guide
       position="384,512"
       orientation="1,0"
       id="guide837"
       inkscape:locked="false" />
  </sodipodi:namedview>
  <metadata
     id="metadata5">
    <rdf:RDF>
      <cc:Work
         rdf:about="">
        <dc:format>image/svg+xml</dc:format>
        <dc:type
           rdf:resource="http://purl.org/dc/dcmitype/StillImage" />
        <dc:title>ResearchGate</dc:title>
        <cc:license
           rdf:resource="http://scripts.sil.org/OFL" />
        <dc:subject>
          <rdf:Bag>
            <rdf:li>ResearchGate</rdf:li>
          </rdf:Bag>
        </dc:subject>
      </cc:Work>
      <cc:License
         rdf:about="http://scripts.sil.org/OFL">
        <cc:permits
           rdf:resource="http://scripts.sil.org/pub/OFL/Reproduction" />
        <cc:permits
           rdf:resource="http://scripts.sil.org/pub/OFL/Distribution" />
        <cc:permits
           rdf:resource="http://scripts.sil.org/pub/OFL/Embedding" />
        <cc:permits
           rdf:resource="http://scripts.sil.org/pub/OFL/DerivativeWorks" />
        <cc:requires
           rdf:resource="http://scripts.sil.org/pub/OFL/Notice" />
        <cc:requires
           rdf:resource="http://scripts.sil.org/pub/OFL/Attribution" />
        <cc:requires
           rdf:resource="http://scripts.sil.org/pub/OFL/ShareAlike" />
        <cc:requires
           rdf:resource="http://scripts.sil.org/pub/OFL/DerivativeRenaming" />
        <cc:requires
           rdf:resource="http://scripts.sil.org/pub/OFL/BundlingWhenSelling" />
      </cc:License>
    </rdf:RDF>
  </metadata>
  <g
     inkscape:label="icon"
     id="layer6"
     inkscape:groupmode="layer"
     transform="translate(0,-64)">
    <path
       d="M 48,64 C 21.5,64 0,85.5 0,112 v 352 c 0,26.5 21.5,48 48,48 h 352 c 26.5,0 48,-21.5 48,-48 V 112 C 448,85.5 426.5,64 400,64 Z m 277.20117,64 c 5.62687,0 10.73126,0.65137 15.25781,1.98047 4.47569,1.3173 8.48936,3.1343 12.03125,5.46094 3.49105,2.30195 6.51074,5.01275 9.00391,8.08203 2.55723,3.08107 4.61458,6.36836 6.22656,9.89844 0.62588,1.12466 0.4491,2.02059 -0.54882,2.64648 l -13.9004,5.71484 c -1.17729,0.62731 -2.00667,0.30778 -2.66015,-0.93359 -3.11903,-5.78011 -5.7801,-9.57621 -10.15235,-12.33789 -4.42451,-2.74987 -8.51812,-4.05469 -15.25781,-4.05469 -7.32762,0 -10.60146,1.45717 -15.1914,4.74414 -4.55304,3.22251 -7.89008,7.27577 -9.85938,13.45117 -0.3953,1.11318 -0.75433,2.49535 -1.17578,4.11914 -0.34553,1.64992 -0.62676,3.6702 -0.80469,6.03516 -0.17954,2.36604 -0.34675,5.29496 -0.5,8.74805 -0.10205,3.45311 -0.15234,7.64668 -0.15234,12.50586 0,4.88423 0.0503,9.07813 0.15234,12.53125 0.15335,3.43982 0.32061,6.36833 0.5,8.73437 0.17791,2.39109 0.45916,4.39932 0.80469,6.0625 0.4218,1.59871 0.78048,2.97743 1.17578,4.10352 1.9693,6.1507 4.78272,9.51387 8.92578,12.21289 4.09224,2.73662 8.79738,4.70703 16.125,4.70703 6.50945,0 12.46879,-1.85479 16.35547,-4.68164 3.84983,-2.82579 7.04595,-6.55908 8.47852,-11.66211 0.62734,-2.14869 1.43247,-4.82233 1.98242,-8.0957 0.49878,-3.27369 0.5,-6.73732 0.5,-11.51954 0,-0.7555 -0.4237,-1.14062 -1.12696,-1.14062 h -22.26367 c -1.25319,0 -1.86718,-0.6124 -1.86718,-1.86523 v -12.76172 c 0,-1.26609 0.61399,-1.88086 1.86718,-1.88086 h 40.85743 c 1.27933,0 1.88085,0.61442 1.88085,1.88086 v 10.90625 c 0,5.78012 -3.9e-4,11.13998 -0.60156,16.10156 -0.57609,4.9616 -1.35514,9.25641 -2.33984,12.38867 -3.12044,9.80934 -8.06907,16.79247 -15.65235,21.99609 -7.60941,5.24306 -17.4178,8.06836 -28.07031,8.06836 -10.94578,0 -20.16479,-2.51693 -27.68359,-7.51757 -7.53208,-5.06363 -12.91761,-12.49558 -16.20313,-22.43164 -0.62732,-1.87907 -1.11184,-3.80957 -1.48242,-5.83008 -0.38383,-2.00725 -0.73062,-4.34819 -1.03711,-7.04688 -0.3194,-2.72371 -0.52364,-5.91893 -0.65039,-9.6914 -0.12822,-3.74635 -0.17969,-8.32498 -0.17969,-13.56836 0,-5.26915 0.0518,-9.78179 0.17969,-13.54102 0.12715,-3.77248 0.33099,-7.00943 0.65039,-9.70703 0.30649,-2.68576 0.65328,-5.03766 1.03711,-7.04492 0.37058,-2.0205 0.85706,-3.93929 1.48438,-5.81836 3.28552,-9.93606 8.66909,-17.40411 16.20117,-22.41797 C 305.03642,130.51846 314.25539,128 325.20117,128 Z m -151.67383,77.8125 c 43.56867,0 76.80274,19.85839 76.80274,62.64648 0,29.02799 -22.91596,58.08293 -53.86133,65.32032 18.7335,33.2484 41.25215,62.66128 58.08008,80.97265 9.89847,10.70337 23.6457,20.26758 37.39258,20.26758 v 9.91211 C 287.74856,446.86159 280.88088,448 274.39648,448 c -22.16011,0 -39.71867,-8.77336 -51.20117,-22.54492 -12.58426,-14.50237 -34.74548,-45.84469 -58.04492,-87.46875 -12.25125,0 -20.26875,-2.7e-4 -29.4375,-0.76758 v 63.78516 c 0,23.69619 5.37216,28.6713 15.67773,30.16797 l 19.87305,2.70898 v 11.05078 c -9.55259,-0.37059 -31.71369,-1.12695 -48.90039,-1.12695 -17.96725,0 -35.921849,0.75636 -46.228514,1.12695 v -11.05078 l 14.501953,-2.70898 c 9.974391,-1.89235 15.652341,-6.47178 15.652341,-30.16797 V 250.50586 c 0,-23.70762 -5.6783,-28.26124 -15.652341,-30.17969 l -14.501953,-2.66015 v -11.08594 c 9.52646,0.37058 24.821274,0.36914 40.128904,0.36914 16.77672,0 34.74479,-1.13672 57.26367,-1.13672 z m -6.86718,17.18555 c -10.3199,0 -22.13587,2.5e-4 -30.94727,0.76757 v 95.84571 c 8.8114,0.83033 14.51537,1.17578 27.50781,1.17578 34.0157,0 54.62891,-20.24276 54.62891,-50.42188 0,-30.53648 -19.08002,-47.36718 -51.18945,-47.36718 z"
       id="path2"
       inkscape:connector-curvature="0" />
  </g>
</svg>
